<svg xmlns="http://www.w3.org/2000/svg" width="167.511" height="55.994" viewBox="0 0 167.511 55.994"><g transform="translate(0 0)"><path d="M154.172,0H13.347c-.513,0-1.02,0-1.532,0-.429,0-.854.011-1.286.018A18.5,18.5,0,0,0,7.723.268a9.33,9.33,0,0,0-2.661.878A9.012,9.012,0,0,0,2.8,2.8,8.761,8.761,0,0,0,1.147,5.065,9.241,9.241,0,0,0,.272,7.729a18.188,18.188,0,0,0-.251,2.8c-.013.429-.014.86-.021,1.289V44.177c.007.435.008.856.021,1.291a18.188,18.188,0,0,0,.251,2.8,9.222,9.222,0,0,0,.875,2.666A8.69,8.69,0,0,0,2.8,53.2a8.783,8.783,0,0,0,2.266,1.65,9.38,9.38,0,0,0,2.661.883,18.836,18.836,0,0,0,2.805.247c.433.01.858.015,1.286.015.512,0,1.019,0,1.532,0H154.172c.5,0,1.014,0,1.517,0,.427,0,.864-.005,1.291-.015a18.588,18.588,0,0,0,2.8-.247,9.525,9.525,0,0,0,2.671-.883,8.788,8.788,0,0,0,2.264-1.65,8.952,8.952,0,0,0,1.654-2.26,9.245,9.245,0,0,0,.867-2.666,18.905,18.905,0,0,0,.26-2.8c.005-.435.005-.856.005-1.291.011-.509.011-1.014.011-1.531v-29.3c0-.513,0-1.021-.011-1.528,0-.429,0-.86-.005-1.289a18.911,18.911,0,0,0-.26-2.8,9.264,9.264,0,0,0-.867-2.664,9.052,9.052,0,0,0-3.918-3.919,9.474,9.474,0,0,0-2.671-.878,18.259,18.259,0,0,0-2.8-.247c-.427-.007-.864-.015-1.29-.018-.5,0-1.014,0-1.517,0Z" transform="translate(0 0)" fill="#a6a6a6"/><path d="M11.472,54.419c-.427,0-.843-.005-1.266-.015a17.759,17.759,0,0,1-2.617-.228,8.237,8.237,0,0,1-2.319-.767,7.567,7.567,0,0,1-1.956-1.423,7.448,7.448,0,0,1-1.429-1.955,8.01,8.01,0,0,1-.76-2.32,17.377,17.377,0,0,1-.233-2.625c-.009-.3-.02-1.278-.02-1.278V11.471s.012-.968.021-1.252A17.316,17.316,0,0,1,1.125,7.6a8.057,8.057,0,0,1,.761-2.327A7.522,7.522,0,0,1,3.307,3.314,7.791,7.791,0,0,1,5.27,1.883a8.151,8.151,0,0,1,2.314-.761A17.619,17.619,0,0,1,10.21.892L11.473.875h143.86l1.278.018a17.337,17.337,0,0,1,2.6.228,8.313,8.313,0,0,1,2.339.767,7.83,7.83,0,0,1,3.381,3.388,8.068,8.068,0,0,1,.749,2.308,18.191,18.191,0,0,1,.243,2.642c0,.4,0,.822,0,1.246.011.525.011,1.025.011,1.528V42.3c0,.509,0,1-.011,1.505,0,.455,0,.872-.005,1.3a17.822,17.822,0,0,1-.239,2.595,8.034,8.034,0,0,1-.756,2.338,7.672,7.672,0,0,1-1.422,1.94,7.577,7.577,0,0,1-1.959,1.431,8.205,8.205,0,0,1-2.335.77,17.558,17.558,0,0,1-2.617.228c-.41.01-.839.015-1.256.015l-1.517,0Z" transform="translate(0.349 0.35)"/><g transform="translate(13.959 12.207)"><path d="M30.686,22.831a6.928,6.928,0,0,1,3.3-5.812A7.091,7.091,0,0,0,28.4,14c-2.351-.247-4.63,1.407-5.827,1.407-1.221,0-3.065-1.382-5.051-1.341a7.441,7.441,0,0,0-6.261,3.819c-2.707,4.687-.688,11.576,1.905,15.365,1.3,1.855,2.814,3.928,4.8,3.854,1.942-.081,2.667-1.238,5.011-1.238,2.322,0,3,1.238,5.027,1.191,2.084-.034,3.4-1.864,4.648-3.736a15.345,15.345,0,0,0,2.126-4.329A6.694,6.694,0,0,1,30.686,22.831Z" transform="translate(-9.972 -6.62)" fill="#fff"/><path d="M23.335,13.607A6.821,6.821,0,0,0,24.9,8.72a6.94,6.94,0,0,0-4.49,2.323,6.49,6.49,0,0,0-1.6,4.705A5.738,5.738,0,0,0,23.335,13.607Z" transform="translate(-6.445 -8.72)" fill="#fff"/><g transform="translate(34.234 12.81)"><path d="M45.451,30.763H38.825l-1.591,4.7H34.427L40.7,18.078h2.916L49.9,35.461H47.041Zm-5.94-2.168h5.252l-2.589-7.625H42.1Z" transform="translate(-34.427 -17.788)" fill="#fff"/><path d="M58.57,27.819c0,3.938-2.108,6.469-5.289,6.469a4.3,4.3,0,0,1-3.988-2.217h-.06v6.277h-2.6V21.481h2.518v2.108H49.2a4.5,4.5,0,0,1,4.035-2.241C56.449,21.348,58.57,23.891,58.57,27.819Zm-2.674,0c0-2.566-1.326-4.253-3.349-4.253-1.988,0-3.325,1.722-3.325,4.253,0,2.554,1.337,4.264,3.325,4.264C54.57,32.082,55.9,30.408,55.9,27.819Z" transform="translate(-29.548 -16.482)" fill="#fff"/><path d="M68.535,27.819c0,3.938-2.108,6.469-5.289,6.469a4.3,4.3,0,0,1-3.988-2.217H59.2v6.277H56.6V21.481h2.518v2.108h.048A4.5,4.5,0,0,1,63.2,21.348C66.414,21.348,68.535,23.891,68.535,27.819Zm-2.674,0c0-2.566-1.326-4.253-3.349-4.253-1.988,0-3.325,1.722-3.325,4.253,0,2.554,1.337,4.264,3.325,4.264,2.023,0,3.349-1.675,3.349-4.264Z" transform="translate(-25.563 -16.482)" fill="#fff"/><path d="M72.471,30.7c.193,1.724,1.867,2.856,4.156,2.856,2.193,0,3.77-1.132,3.77-2.686,0-1.349-.951-2.157-3.2-2.711l-2.253-.543c-3.192-.771-4.674-2.264-4.674-4.686,0-3,2.614-5.059,6.325-5.059,3.673,0,6.191,2.06,6.276,5.059H80.241c-.157-1.735-1.591-2.782-3.687-2.782s-3.53,1.059-3.53,2.6c0,1.229.916,1.952,3.156,2.506l1.915.47c3.567.843,5.048,2.276,5.048,4.819,0,3.252-2.591,5.289-6.711,5.289-3.855,0-6.458-1.989-6.626-5.133Z" transform="translate(-20.28 -17.871)" fill="#fff"/><path d="M84.619,19.3v3h2.41v2.06h-2.41v6.987c0,1.085.483,1.591,1.542,1.591a8.128,8.128,0,0,0,.856-.06v2.048a7.144,7.144,0,0,1-1.445.12c-2.566,0-3.567-.964-3.567-3.422V24.359H80.163V22.3h1.843v-3Z" transform="translate(-16.14 -17.3)" fill="#fff"/><path d="M86.065,27.824c0-3.988,2.349-6.493,6.011-6.493s6.012,2.506,6.012,6.493-2.325,6.493-6.012,6.493S86.065,31.823,86.065,27.824Zm9.372,0c0-2.735-1.254-4.35-3.362-4.35s-3.36,1.627-3.36,4.35c0,2.746,1.252,4.349,3.36,4.349s3.361-1.6,3.361-4.349Z" transform="translate(-13.78 -16.488)" fill="#fff"/><path d="M96.186,21.481h2.481v2.157h.06a3.023,3.023,0,0,1,3.049-2.29,4.012,4.012,0,0,1,.891.1v2.433a3.637,3.637,0,0,0-1.169-.157,2.621,2.621,0,0,0-2.711,2.916v7.517h-2.6Z" transform="translate(-9.733 -16.482)" fill="#fff"/><path d="M112.65,30.438c-.35,2.3-2.591,3.88-5.457,3.88-3.687,0-5.975-2.47-5.975-6.433s2.3-6.554,5.866-6.554c3.506,0,5.711,2.409,5.711,6.251v.891h-8.951v.157a3.3,3.3,0,0,0,3.409,3.59,2.867,2.867,0,0,0,2.927-1.783Zm-8.794-3.783h6.336a3.048,3.048,0,0,0-3.109-3.217,3.208,3.208,0,0,0-3.228,3.217Z" transform="translate(-7.722 -16.488)" fill="#fff"/></g></g></g><g transform="translate(49.934 11.811)"><path d="M38.688,8.734a3.7,3.7,0,0,1,3.93,4.15c0,2.668-1.442,4.2-3.93,4.2H35.671V8.734Zm-1.72,7.171h1.575a2.626,2.626,0,0,0,2.755-3,2.633,2.633,0,0,0-2.755-2.987H36.968Z" transform="translate(-35.671 -8.322)" fill="#fff"/><path d="M41.685,13.379a2.986,2.986,0,1,1,5.945,0,2.987,2.987,0,1,1-5.945,0Zm4.666,0c0-1.366-.614-2.165-1.691-2.165s-1.69.8-1.69,2.165.608,2.17,1.69,2.17,1.691-.8,1.691-2.17Z" transform="translate(-33.272 -7.769)" fill="#fff"/><path d="M53.574,16.5h-1.29l-1.3-4.642h-.1l-1.3,4.642H48.307l-1.738-6.3h1.262L48.96,15h.093l1.3-4.81h1.193l1.3,4.81h.1l1.124-4.81H55.3Z" transform="translate(-31.313 -7.734)" fill="#fff"/><path d="M53.854,10.231h1.2v1h.093a1.887,1.887,0,0,1,1.881-1.123,2.05,2.05,0,0,1,2.182,2.344v4.081H57.963V12.767c0-1.013-.44-1.517-1.36-1.517a1.446,1.446,0,0,0-1.505,1.6v3.688H53.854Z" transform="translate(-28.401 -7.771)" fill="#fff"/><path d="M59.094,8.437h1.244V17.2H59.094Z" transform="translate(-26.305 -8.437)" fill="#fff"/><path d="M61.222,13.379a2.987,2.987,0,1,1,5.946,0,2.987,2.987,0,1,1-5.946,0Zm4.666,0c0-1.366-.614-2.165-1.691-2.165s-1.69.8-1.69,2.165.608,2.17,1.69,2.17,1.691-.8,1.691-2.17Z" transform="translate(-25.46 -7.769)" fill="#fff"/><path d="M66.4,14.75c0-1.135.845-1.789,2.344-1.882l1.707-.1v-.544c0-.666-.44-1.042-1.29-1.042-.694,0-1.176.255-1.314.7h-1.2c.127-1.083,1.146-1.777,2.576-1.777,1.58,0,2.472.787,2.472,2.118v4.307h-1.2v-.886h-.1a2.121,2.121,0,0,1-1.893.99,1.9,1.9,0,0,1-2.1-1.886Zm4.052-.539v-.527l-1.539.1c-.868.058-1.262.353-1.262.909s.492.9,1.169.9a1.486,1.486,0,0,0,1.632-1.378Z" transform="translate(-23.384 -7.769)" fill="#fff"/><path d="M71.348,14.047c0-1.992,1.024-3.254,2.616-3.254A2.077,2.077,0,0,1,75.9,11.9h.093V8.437h1.244V17.2H76.043v-1h-.1a2.188,2.188,0,0,1-1.979,1.1C72.361,17.305,71.348,16.043,71.348,14.047Zm1.285,0c0,1.337.63,2.141,1.684,2.141s1.7-.816,1.7-2.136-.655-2.141-1.7-2.141-1.684.81-1.684,2.136Z" transform="translate(-21.406 -8.437)" fill="#fff"/><path d="M79.234,13.379a2.986,2.986,0,1,1,5.945,0,2.987,2.987,0,1,1-5.945,0Zm4.666,0c0-1.366-.614-2.165-1.691-2.165s-1.69.8-1.69,2.165.608,2.17,1.69,2.17S83.9,14.75,83.9,13.379Z" transform="translate(-18.258 -7.769)" fill="#fff"/><path d="M84.669,10.231h1.2v1h.093a1.887,1.887,0,0,1,1.881-1.123,2.05,2.05,0,0,1,2.182,2.344v4.081H88.779V12.767c0-1.013-.44-1.517-1.36-1.517a1.446,1.446,0,0,0-1.505,1.6v3.688H84.669Z" transform="translate(-16.079 -7.771)" fill="#fff"/><path d="M94.157,9.074v1.6h1.366V11.72H94.157v3.241c0,.66.272.949.891.949a4.152,4.152,0,0,0,.474-.029v1.036a4.081,4.081,0,0,1-.677.064c-1.383,0-1.934-.487-1.934-1.7V11.72h-1V10.672h1v-1.6Z" transform="translate(-13.184 -8.182)" fill="#fff"/><path d="M95.7,8.437h1.233v3.474h.1a1.94,1.94,0,0,1,1.922-1.129,2.077,2.077,0,0,1,2.171,2.35V17.2H99.884V13.438c0-1.007-.469-1.517-1.348-1.517a1.473,1.473,0,0,0-1.587,1.6V17.2H95.7Z" transform="translate(-11.667 -8.437)" fill="#fff"/><path d="M106.381,14.831a2.559,2.559,0,0,1-2.731,1.824,2.863,2.863,0,0,1-2.912-3.254,2.907,2.907,0,0,1,2.906-3.293c1.754,0,2.812,1.2,2.812,3.178v.434H102v.07a1.666,1.666,0,0,0,1.679,1.806,1.511,1.511,0,0,0,1.5-.764ZM102,12.8h3.184a1.521,1.521,0,0,0-1.552-1.633A1.612,1.612,0,0,0,102,12.8Z" transform="translate(-9.665 -7.769)" fill="#fff"/></g></svg>