<svg xmlns="http://www.w3.org/2000/svg" width="35.895" height="35.863" viewBox="0 0 35.895 35.863"><path d="M1723,1788.752V1787h-5.733l1.752,1.752h2.771v10.319h-3.281V1796.2h1.625v-1.242h-2.867v4.109h-4.108v2.866h1.242v-1.625h2.866v3.249h-10.319v-2.771l-1.752-1.752v5.733h17.772v-5.733h0v-10.287Zm-1.752,11.561v.51h0v2.229h-2.739v-2.739Z" transform="translate(-1705.2 -1787)" fill="#fff"/><path d="M1778.02,1800.891v2.771H1767.7v-3.249h2.866v1.624h1.242v-2.866H1767.7v-4.109h-2.866v1.242h1.624v2.866h-3.249v-10.319h2.771l1.751-1.752H1762v12.071h0v5.733h17.8v-5.733Zm-14.3,0v-.51h2.739v2.739h-2.739v-2.229Z" transform="translate(-1743.909 -1787.068)" fill="#fff"/><path d="M1763.652,1843.7H1761.9v5.733h0V1861.5h5.733l-1.752-1.752h-2.771v-10.319h3.249v2.9h-1.625v1.242h2.866v-4.14h4.109v-2.866h-1.242v1.624H1767.6v-3.249h10.32v2.771l1.752,1.751v-5.733h-16.021Zm0,4.491v-.51h0v-2.229h2.739v2.739Z" transform="translate(-1743.841 -1825.641)" fill="#fff"/><path d="M1723,1843.7h-17.8v5.733l1.752-1.752v-2.771h10.319v3.249H1714.4v-1.624h-1.242v2.866h4.108v4.109h2.867v-1.242h-1.625V1849.4h3.249v10.319h-2.771l-1.752,1.752h5.733V1845.42l.032-1.72Zm-1.752,3.981v.51h-2.739v-2.739h2.739v2.229Z" transform="translate(-1705.2 -1825.641)" fill="#fff"/></svg>