<svg xmlns="http://www.w3.org/2000/svg" width="92.365" height="33.283" viewBox="0 0 92.365 33.283"><path d="M2043.921,1788.9v18.218l-4.172-18.218v0H2036.5v33.283h3.249v-18.76l4.172,18.218v.542h3.249V1788.9Z" transform="translate(-1970.762 -1788.9)" fill="#fff"/><path d="M1887.553,1792.18V1788.9H1880.1v33.283h7.453v-3.249h-4.172v-11.752h4.172v-3.249h-4.172V1792.18Z" transform="translate(-1864.175 -1788.9)" fill="#fff"/><path d="M1927.353,1792.18V1788.9H1919.9v33.283h7.453v-3.249h-4.173V1792.18Z" transform="translate(-1891.299 -1788.9)" fill="#fff"/><g transform="translate(57.234 0)"><rect width="3.249" height="3.249" fill="#fff"/><rect width="3.249" height="25.83" transform="translate(0 7.453)" fill="#fff"/></g><path d="M2097.2,1788.9h-10.7v33.283h10.7v-18.377h-5.383v3.249h2.1v11.88h-4.172V1792.18h4.172" transform="translate(-2004.837 -1788.9)" fill="#fff"/><path d="M1967.153,1788.9v15.033h-4.172V1788.9H1959.7v33.283h3.281v-15h4.172v15h3.249V1788.9Z" transform="translate(-1918.423 -1788.9)" fill="#fff"/><path d="M1833.349,1792.18h4.172v30h3.249V1788.9H1830.1" transform="translate(-1830.1 -1788.9)" fill="#fff"/></svg>