<svg xmlns="http://www.w3.org/2000/svg" width="117.777" height="117.754" viewBox="0 0 117.777 117.754"><g transform="translate(0.261 0.238)"><line x1="55.202" transform="translate(44.601 17.012)" fill="none" stroke="#fff" stroke-miterlimit="10" stroke-width="1"/><line x1="55.202" transform="translate(44.601 72.214)" fill="none" stroke="#fff" stroke-miterlimit="10" stroke-width="1"/><line y1="55.202" transform="translate(44.601 17.012)" fill="none" stroke="#fff" stroke-miterlimit="10" stroke-width="1"/><line y1="55.202" transform="translate(99.804 17.012)" fill="none" stroke="#fff" stroke-miterlimit="10" stroke-width="1"/><line x1="55.202" transform="translate(17.012 44.625)" fill="none" stroke="#fff" stroke-miterlimit="10" stroke-width="1"/><line x1="55.202" transform="translate(17.012 99.804)" fill="none" stroke="#fff" stroke-miterlimit="10" stroke-width="1"/><line y1="55.202" transform="translate(17.012 44.601)" fill="none" stroke="#fff" stroke-miterlimit="10" stroke-width="1"/><line y1="55.202" transform="translate(72.214 44.601)" fill="none" stroke="#fff" stroke-miterlimit="10" stroke-width="1"/><line x1="27.589" y2="27.589" transform="translate(16.943 16.943)" fill="none" stroke="#fff" stroke-miterlimit="10" stroke-width="1"/><line x1="27.589" y2="27.589" transform="translate(72.283 16.943)" fill="none" stroke="#fff" stroke-miterlimit="10" stroke-width="1"/><line x1="27.589" y2="27.589" transform="translate(72.283 72.283)" fill="none" stroke="#fff" stroke-miterlimit="10" stroke-width="1"/><line x1="27.589" y2="27.589" transform="translate(16.943 72.283)" fill="none" stroke="#fff" stroke-miterlimit="10" stroke-width="1"/><line x1="39.023" y1="39.023" transform="translate(78.139 19.396)" fill="none" stroke="#fff" stroke-miterlimit="10" stroke-width="1"/><line x1="39.023" y1="39.023" transform="translate(39.116 58.419)" fill="none" stroke="#fff" stroke-miterlimit="10" stroke-width="1"/><line y1="39.023" x2="39.023" transform="translate(39.116 19.396)" fill="none" stroke="#fff" stroke-miterlimit="10" stroke-width="1"/><line y1="39.023" x2="39.023" transform="translate(78.139 58.419)" fill="none" stroke="#fff" stroke-miterlimit="10" stroke-width="1"/><line x1="39.023" y1="39.023" transform="translate(39.116 19.396)" fill="none" stroke="#fff" stroke-miterlimit="10" stroke-width="1"/><line x1="39.047" y1="39.023" transform="translate(0.093 58.419)" fill="none" stroke="#fff" stroke-miterlimit="10" stroke-width="1"/><line y1="39.023" x2="39.047" transform="translate(0.093 19.396)" fill="none" stroke="#fff" stroke-miterlimit="10" stroke-width="1"/><line y1="39.023" x2="39.023" transform="translate(39.116 58.419)" fill="none" stroke="#fff" stroke-miterlimit="10" stroke-width="1"/><line x1="39.023" transform="translate(39.116 19.28)" fill="none" stroke="#fff" stroke-miterlimit="10" stroke-width="1"/><line x1="39.023" transform="translate(78.255 58.419)" fill="none" stroke="#fff" stroke-miterlimit="10" stroke-width="1"/><line x1="39.023" transform="translate(39.116 97.535)" fill="none" stroke="#fff" stroke-miterlimit="10" stroke-width="1"/><line x1="39.023" transform="translate(0 58.419)" fill="none" stroke="#fff" stroke-miterlimit="10" stroke-width="1"/><line y1="55.179" transform="translate(100.035 44.393)" fill="none" stroke="#fff" stroke-miterlimit="10" stroke-width="1"/><line y1="55.179" transform="translate(44.833 44.393)" fill="none" stroke="#fff" stroke-miterlimit="10" stroke-width="1"/><line x2="55.202" transform="translate(44.833 44.393)" fill="none" stroke="#fff" stroke-miterlimit="10" stroke-width="1"/><line x2="55.202" transform="translate(44.833 99.572)" fill="none" stroke="#fff" stroke-miterlimit="10" stroke-width="1"/><line y1="55.202" transform="translate(72.422 16.781)" fill="none" stroke="#fff" stroke-miterlimit="10" stroke-width="1"/><line y1="55.202" transform="translate(17.243 16.781)" fill="none" stroke="#fff" stroke-miterlimit="10" stroke-width="1"/><line x2="55.202" transform="translate(17.243 16.804)" fill="none" stroke="#fff" stroke-miterlimit="10" stroke-width="1"/><line x2="55.202" transform="translate(17.243 71.983)" fill="none" stroke="#fff" stroke-miterlimit="10" stroke-width="1"/><line x1="27.589" y1="27.589" transform="translate(72.515 16.711)" fill="none" stroke="#fff" stroke-miterlimit="10" stroke-width="1"/><line x1="27.589" y1="27.589" transform="translate(72.515 72.052)" fill="none" stroke="#fff" stroke-miterlimit="10" stroke-width="1"/><line x1="27.589" y1="27.589" transform="translate(17.174 72.052)" fill="none" stroke="#fff" stroke-miterlimit="10" stroke-width="1"/><line x1="27.589" y1="27.589" transform="translate(17.174 16.711)" fill="none" stroke="#fff" stroke-miterlimit="10" stroke-width="1"/><line y1="39.023" x2="39.023" transform="translate(58.628 78.139)" fill="none" stroke="#fff" stroke-miterlimit="10" stroke-width="1"/><line y1="39.047" x2="39.047" transform="translate(19.604 39.116)" fill="none" stroke="#fff" stroke-miterlimit="10" stroke-width="1"/><line x2="39.023" y2="39.047" transform="translate(58.628 39.116)" fill="none" stroke="#fff" stroke-miterlimit="10" stroke-width="1"/><line x2="39.047" y2="39.023" transform="translate(19.604 78.139)" fill="none" stroke="#fff" stroke-miterlimit="10" stroke-width="1"/><line y1="39.047" x2="39.023" transform="translate(58.628 39.116)" fill="none" stroke="#fff" stroke-miterlimit="10" stroke-width="1"/><line y1="39.023" x2="39.047" transform="translate(19.604 0.116)" fill="none" stroke="#fff" stroke-miterlimit="10" stroke-width="1"/><line x2="39.023" y2="39.023" transform="translate(58.628 0.116)" fill="none" stroke="#fff" stroke-miterlimit="10" stroke-width="1"/><line x2="39.047" y2="39.047" transform="translate(19.604 39.116)" fill="none" stroke="#fff" stroke-miterlimit="10" stroke-width="1"/><line y1="39" transform="translate(97.767 39.139)" fill="none" stroke="#fff" stroke-miterlimit="10" stroke-width="1"/><line y1="39.023" transform="translate(58.628 78.255)" fill="none" stroke="#fff" stroke-miterlimit="10" stroke-width="1"/><line y1="39" transform="translate(19.512 39.139)" fill="none" stroke="#fff" stroke-miterlimit="10" stroke-width="1"/><line y1="39.023" transform="translate(58.628)" fill="none" stroke="#fff" stroke-miterlimit="10" stroke-width="1"/><circle cx="9.42" cy="9.42" r="9.42" transform="translate(49.207 49.231)" fill="#fff"/></g></svg>