<svg xmlns="http://www.w3.org/2000/svg" xmlns:xlink="http://www.w3.org/1999/xlink" width="167.79" height="56.055" viewBox="0 0 167.79 56.055"><defs><linearGradient id="a" x1="0.914" y1="6.196" x2="-0.387" y2="5.526" gradientUnits="objectBoundingBox"><stop offset="0" stop-color="#00a0ff"/><stop offset="0.007" stop-color="#00a1ff"/><stop offset="0.26" stop-color="#00beff"/><stop offset="0.512" stop-color="#00d2ff"/><stop offset="0.76" stop-color="#00dfff"/><stop offset="1" stop-color="#00e3ff"/></linearGradient><linearGradient id="b" x1="1.078" y1="15.866" x2="-1.311" y2="15.866" gradientUnits="objectBoundingBox"><stop offset="0" stop-color="#ffe000"/><stop offset="0.409" stop-color="#ffbd00"/><stop offset="0.775" stop-color="orange"/><stop offset="1" stop-color="#ff9c00"/></linearGradient><linearGradient id="c" x1="0.86" y1="10.077" x2="-0.503" y2="8.304" gradientUnits="objectBoundingBox"><stop offset="0" stop-color="#ff3a44"/><stop offset="1" stop-color="#c31162"/></linearGradient><linearGradient id="d" x1="-0.19" y1="12.771" x2="0.419" y2="11.981" gradientUnits="objectBoundingBox"><stop offset="0" stop-color="#32a071"/><stop offset="0.068" stop-color="#2da771"/><stop offset="0.476" stop-color="#15cf74"/><stop offset="0.801" stop-color="#06e775"/><stop offset="1" stop-color="#00f076"/></linearGradient></defs><g transform="translate(0)"><path d="M161.621,56.055H6.169C2.8,56.055,0,52.891,0,49.1V6.959C0,3.163,2.8,0,6.169,0H161.621c3.365,0,6.169,3.163,6.169,6.959V49.1C167.79,52.891,164.986,56.055,161.621,56.055Z" transform="translate(0)"/></g><g transform="translate(0)"><path d="M161.621,1.139c2.916,0,5.271,2.657,5.271,5.947V49.222c0,3.29-2.355,5.947-5.271,5.947H6.169C3.253,55.169.9,52.512.9,49.222V6.959C1.009,3.8,3.365,1.139,6.169,1.139H161.621m0-1.139H6.169C2.8,0,0,3.163,0,6.959V49.1c0,3.8,2.8,6.959,6.169,6.959H161.621c3.365,0,6.169-3.163,6.169-6.959V6.959c0-3.8-2.8-6.959-6.169-6.959Z" transform="translate(0)" fill="#a6a6a6"/></g><g transform="translate(45.827 9.617)"><path d="M54.351,12.408a3.939,3.939,0,0,1-1.012,2.784,4.277,4.277,0,0,1-6.074,0A4.2,4.2,0,0,1,46,12.029a4.2,4.2,0,0,1,1.265-3.163A4.113,4.113,0,0,1,50.3,7.6a4.466,4.466,0,0,1,1.771.38,3.23,3.23,0,0,1,1.265.886l-.759.759A2.78,2.78,0,0,0,50.3,8.612a3.049,3.049,0,0,0-2.278.886,3.361,3.361,0,0,0,0,4.808,3.049,3.049,0,0,0,2.278.886,3.34,3.34,0,0,0,2.4-.886,3.313,3.313,0,0,0,.759-1.645H50.429V11.649h4.049C54.225,11.9,54.351,12.155,54.351,12.408Z" transform="translate(-46 -7.6)" fill="#fff" stroke="#fff" stroke-miterlimit="10" stroke-width="0.2"/><path d="M58.735,8.812h-3.8v2.657h3.416v1.012H54.939v2.657h3.8v1.012H53.8V7.8h4.935Z" transform="translate(-43.93 -7.547)" fill="#fff" stroke="#fff" stroke-miterlimit="10" stroke-width="0.2"/><path d="M62.043,16.151H60.9V8.812H58.5V7.8h5.821V8.812h-2.4v7.339Z" transform="translate(-42.683 -7.547)" fill="#fff" stroke="#fff" stroke-miterlimit="10" stroke-width="0.2"/><path d="M66.4,16.151V7.8h1.139v8.478H66.4Z" transform="translate(-40.587 -7.547)" fill="#fff" stroke="#fff" stroke-miterlimit="10" stroke-width="0.2"/><path d="M71.843,16.151H70.7V8.812H68.3V7.8h5.821V8.812h-2.4v7.339Z" transform="translate(-40.083 -7.547)" fill="#fff" stroke="#fff" stroke-miterlimit="10" stroke-width="0.2"/><path d="M83.139,15.192A4.113,4.113,0,0,1,80.1,16.457a3.751,3.751,0,0,1-3.037-1.265A4.2,4.2,0,0,1,75.8,12.029a4.2,4.2,0,0,1,1.265-3.163A4.113,4.113,0,0,1,80.1,7.6a3.751,3.751,0,0,1,3.037,1.265A4.2,4.2,0,0,1,84.4,12.029,4.732,4.732,0,0,1,83.139,15.192ZM77.7,14.433a3.371,3.371,0,0,0,4.555,0,3.15,3.15,0,0,0,.886-2.4,3.08,3.08,0,0,0-.759-2.4,3.371,3.371,0,0,0-4.555,0,3.15,3.15,0,0,0-.886,2.4A3.648,3.648,0,0,0,77.7,14.433Z" transform="translate(-38.093 -7.6)" fill="#fff" stroke="#fff" stroke-miterlimit="10" stroke-width="0.2"/><path d="M83.8,16.151V7.8h1.265l4.049,6.58h0V7.8h1.139v8.478H89.114l-4.3-6.959h0v6.833Z" transform="translate(-35.97 -7.547)" fill="#fff" stroke="#fff" stroke-miterlimit="10" stroke-width="0.2"/></g><path d="M81.9,25.453A5.744,5.744,0,0,0,76.2,31.4a5.708,5.708,0,1,0,11.406,0A5.671,5.671,0,0,0,81.9,25.453Zm0,9.617A3.483,3.483,0,0,1,78.626,31.4a3.3,3.3,0,1,1,6.552,0A3.407,3.407,0,0,1,81.9,35.07ZM69.4,25.453A5.744,5.744,0,0,0,63.7,31.4a5.708,5.708,0,1,0,11.406,0A5.744,5.744,0,0,0,69.4,25.453Zm0,9.617A3.483,3.483,0,0,1,66.128,31.4,3.407,3.407,0,0,1,69.4,27.731,3.483,3.483,0,0,1,72.681,31.4,3.483,3.483,0,0,1,69.4,35.07ZM54.479,27.351v2.531H60.3a5.006,5.006,0,0,1-1.335,3.163,5.864,5.864,0,0,1-4.49,1.9,6.617,6.617,0,0,1-6.431-6.706,6.538,6.538,0,0,1,6.431-6.706A5.894,5.894,0,0,1,58.848,23.3l1.7-1.771A8.518,8.518,0,0,0,54.479,19a9.241,9.241,0,0,0,0,18.474,7.723,7.723,0,0,0,6.188-2.657,8.682,8.682,0,0,0,2.063-5.947,5.43,5.43,0,0,0-.121-1.518Zm60.914,1.9a5.3,5.3,0,0,0-4.854-3.8c-2.912,0-5.339,2.4-5.339,5.947a5.746,5.746,0,0,0,5.7,5.947,5.4,5.4,0,0,0,4.732-2.657L113.694,33.3a3.186,3.186,0,0,1-2.791,1.645,2.948,2.948,0,0,1-2.791-1.771l7.645-3.29Zm-7.766,2.025a3.257,3.257,0,0,1,3.034-3.543A2.387,2.387,0,0,1,112.845,29Zm-6.188,5.821h2.548V19.506h-2.548ZM97.313,26.845h0a3.979,3.979,0,0,0-3.155-1.392A5.785,5.785,0,0,0,88.7,31.4a5.869,5.869,0,0,0,5.46,5.947,3.9,3.9,0,0,0,3.034-1.392h.121v.886c0,2.278-1.213,3.543-3.034,3.543a3.12,3.12,0,0,1-2.912-2.151l-2.184,1.012a5.564,5.564,0,0,0,5.1,3.543c2.912,0,5.46-1.771,5.46-6.2V25.833H97.313ZM94.4,35.07a3.352,3.352,0,0,1-3.155-3.543A3.392,3.392,0,0,1,94.4,27.857c1.7,0,3.034,1.518,3.034,3.669A3.261,3.261,0,0,1,94.4,35.07Zm32.762-15.564H121.1V37.094h2.548V30.388h3.519a5.441,5.441,0,1,0,0-10.882Zm.121,8.478h-3.519V21.91h3.519a3.039,3.039,0,0,1,0,6.074Zm15.532-2.531a4.872,4.872,0,0,0-4.49,2.657l2.184,1.012a2.266,2.266,0,0,1,2.305-1.265,2.409,2.409,0,0,1,2.67,2.278v.127a5.949,5.949,0,0,0-2.67-.633c-2.427,0-4.854,1.392-4.854,3.923a3.835,3.835,0,0,0,4.126,3.8,3.2,3.2,0,0,0,3.155-1.771h.121v1.392h2.427V30.262C147.912,27.225,145.728,25.453,142.816,25.453Zm-.364,9.617c-.849,0-1.941-.38-1.941-1.518,0-1.392,1.456-1.9,2.67-1.9a4.183,4.183,0,0,1,2.305.633A3.158,3.158,0,0,1,142.452,35.07Zm14.318-9.237-2.912,7.592h-.121L150.7,25.833h-2.67l4.49,10.629-2.548,5.947h2.669l6.917-16.576ZM134.079,37.094h2.548V19.506h-2.548Z" transform="translate(-0.305 5.041)" fill="#fff"/><g transform="translate(8.269 10.029)"><path d="M11.733,8.4a2.971,2.971,0,0,0-.633,2.025v31a3.22,3.22,0,0,0,.633,2.025l.127.127L29.194,26.241v-.633L11.733,8.4Z" transform="translate(-11.1 -7.801)" fill="url(#a)"/><path d="M31.221,29.421,25.4,23.6v-.38L31.221,17.4l.127.127,6.833,3.923c1.9,1.139,1.9,2.91,0,4.049l-6.833,3.923Z" transform="translate(-7.306 -5.412)" fill="url(#b)"/><path d="M35.009,28.147,29.062,22.2,11.6,39.662a2.417,2.417,0,0,0,2.91.127l20.5-11.641" transform="translate(-10.967 -4.139)" fill="url(#c)"/><path d="M35.009,20.038,14.51,8.4c-1.139-.633-2.278-.633-2.91.127L29.062,25.985Z" transform="translate(-10.967 -7.923)" fill="url(#d)"/><g transform="translate(0 23.755)"><path d="M34.882,26.7,14.51,38.215c-1.139.633-2.151.633-2.784,0h0l-.127.253h0l.127.127h0c.633.633,1.645.633,2.784,0l20.5-11.641Z" transform="translate(-10.967 -26.7)" opacity="0.2"/><path d="M11.733,36.225A2.971,2.971,0,0,1,11.1,34.2v.253a3.22,3.22,0,0,0,.633,2.025v-.253Z" transform="translate(-11.1 -24.71)" opacity="0.12"/></g><path d="M36.959,24,30,27.921l.127.127,6.833-3.923A2.373,2.373,0,0,0,38.478,22.1h0A2.746,2.746,0,0,1,36.959,24Z" transform="translate(-6.085 -4.165)" opacity="0.12"/><path d="M14.643,8.652,41.974,24.216a2.837,2.837,0,0,1,1.518,1.771h0a2.373,2.373,0,0,0-1.518-2.025L14.643,8.4c-1.9-1.139-3.543-.127-3.543,2.025v.253C11.1,8.4,12.618,7.513,14.643,8.652Z" transform="translate(-11.1 -7.926)" fill="#fff" opacity="0.25"/></g></svg>